# xmcd CD database file
#
# Track frame offsets:
#	150
#	27183
#	44963
#	57840
#	73945
#	90703
#	109020
#	129303
#	141983
#	157520
#	175033
#
# Disc length: 2576 seconds
#
# Revision: 0
# Processed by: cddbd v1.5.1PL0 Copyright (c) Steve Scherf et al.
# Submitted via: CDex 1.51
#
DISCID=930a0e0b
DTITLE=ヒカシュー - 日本の笑顔
DYEAR=1900
DGENRE=Rock
TTITLE0=日本の笑顔
TTITLE1=キリンという名のCafe
TTITLE2=波
TTITLE3=太陽と水すまし
TTITLE4=街のしあわせもの
TTITLE5=魅惑のペイブメント
TTITLE6=岩
TTITLE7=氷河のララバイ
TTITLE8=水に流して
TTITLE9=そんなコタァないよ
TTITLE10=スカート
EXTD=
EXTT0=
EXTT1=
EXTT2=
EXTT3=
EXTT4=
EXTT5=
EXTT6=
EXTT7=
EXTT8=
EXTT9=
EXTT10=
PLAYORDER=
